<?xml version="1.0" standalone="no"?>
<!DOCTYPE svg PUBLIC "-//W3C//DTD SVG 20010904//EN"
 "http://www.w3.org/TR/2001/REC-SVG-20010904/DTD/svg10.dtd">
<svg version="1.0" xmlns="http://www.w3.org/2000/svg"
 width="400.000000pt" height="400.000000pt" viewBox="0 0 400.000000 400.000000"
 preserveAspectRatio="xMidYMid meet">
<metadata>
Created by potrace 1.14, written by Peter Selinger 2001-2017
</metadata>
<g transform="translate(0.000000,400.000000) scale(0.100000,-0.100000)"
fill="#000000" stroke="none">
<path d="M1174 3429 l-822 -480 -6 -622 c-4 -342 -6 -776 -4 -965 l3 -343 815
-471 c448 -259 822 -472 830 -472 8 -1 385 214 836 478 l822 479 6 621 c4 341
6 776 4 965 l-3 345 -820 473 c-450 260 -824 473 -830 472 -5 0 -380 -216
-831 -480z m1545 -213 l691 -399 0 -817 0 -816 -702 -409 c-385 -226 -705
-412 -710 -413 -5 -2 -323 178 -708 400 l-700 403 0 817 0 816 703 411 c386
226 709 410 718 408 9 -1 327 -182 708 -401z"/>
<path d="M1350 2645 c-227 -47 -368 -158 -464 -367 -44 -95 -59 -171 -58 -288
2 -189 73 -372 186 -478 132 -123 272 -182 451 -189 134 -6 230 12 330 61 77
38 175 124 175 153 0 19 -195 173 -219 173 -6 0 -31 -18 -55 -40 -89 -82 -191
-105 -307 -70 -64 19 -81 30 -139 88 -73 73 -103 135 -121 247 -25 150 50 328
169 403 124 79 272 80 380 2 23 -16 50 -30 61 -30 26 0 201 149 201 171 0 22
-68 78 -138 113 -123 62 -300 82 -452 51z"/>
<path d="M2580 2645 c-251 -50 -414 -194 -494 -436 -65 -196 -30 -438 90 -619
66 -100 201 -197 336 -241 63 -21 92 -24 213 -24 153 0 229 17 325 73 58 33
150 120 150 141 0 18 -198 171 -220 171 -7 0 -33 -18 -57 -41 -66 -60 -123
-83 -213 -83 -62 -1 -85 4 -132 27 -136 66 -228 223 -228 386 0 47 25 144 51
198 92 190 344 262 507 143 23 -16 49 -30 58 -30 23 0 204 149 204 167 0 22
-63 77 -130 112 -124 66 -303 88 -460 56z"/>
</g>
</svg>
